<svg xmlns="http://www.w3.org/2000/svg" viewBox="0 0 549 679">
  <defs>
    <style>
      .a {
        fill: #fcee21;
      }

      .b {
        fill: #b4e6ff;
      }

      .c {
        fill: #5568ff;
      }

      .d {
        fill: #00941d;
      }

      .e {
        fill: none;
        stroke: #000;
        stroke-miterlimit: 10;
      }
    </style>
  </defs>
  <title>metaphor1</title>
  <g>
    <polygon class="a" points="509.23 170.48 414.34 189.81 376.63 278.12 328.73 194.79 232.2 186.6 297.49 115.77 275.53 22.41 363.79 61.96 446.75 12.45 436 107.72 509.23 170.48"/>
    <ellipse class="a" cx="372.25" cy="136.49" rx="91.2" ry="80.85"/>
    <polygon class="a" points="460.58 258.9 373.71 216.46 289.12 263.21 303.07 168.35 232 103.2 327.49 87.01 368.15 0 413.22 84.86 509.42 96.23 441.79 164.86 460.58 258.9"/>
  </g>
  <rect class="b" y="229" width="66" height="323"/>
  <g>
    <ellipse class="c" cx="409" cy="538.5" rx="140" ry="140.5"/>
    <path class="d" d="M747.5,452.5c-9.32,9.78-4.23,27.41-19,38-3.49,2.5-7.74,4.36-8,8-.48,6.65,12.81,12.49,14,13,17.38,7.46,25.89-2.66,39,3,15.45,6.68,12.29,24.5,25,28,12.4,3.41,30-9.52,36-25,8.35-21.44-6.87-44.13-19-55C794.66,443.83,759.92,439.47,747.5,452.5Z" transform="translate(-342 -13)"/>
    <path class="d" d="M655.5,539.5c-11.8,18.85,2,42.17,6,49,14.93,25.29,48,43.58,62,34,10.28-7,7.66-27.19,6-40-1.48-11.36-6.8-52.41-34-59C681.52,520.11,663.75,526.32,655.5,539.5Z" transform="translate(-342 -13)"/>
    <path class="d" d="M814.5,650.5h0c1-.51,2.34-1.24,3.9-2.2,15.39-9.42,34.68-30.78,32.1-55.8-1-9.77-6.34-29.76-19-33-30.42-7.78-90.69,84.43-75,103,4.74,5.61,18.11,6.5,52-8" transform="translate(-342 -13)"/>
  </g>
  <path class="e" d="M558.5,209.5c-31,13.94-84.75,44.12-120,104a235.86,235.86,0,0,0-18,38" transform="translate(-342 -13)"/>
  <path class="e" d="M579.5,215.5c-31,13.94-84.75,44.12-120,104a235.86,235.86,0,0,0-18,38" transform="translate(-342 -13)"/>
  <path class="e" d="M599.5,225.5c-31,13.94-84.75,44.12-120,104a235.86,235.86,0,0,0-18,38" transform="translate(-342 -13)"/>
  <path class="e" d="M619.5,230.5c-31,13.94-84.75,44.12-120,104a235.86,235.86,0,0,0-18,38" transform="translate(-342 -13)"/>
  <path class="e" d="M432.5,464.5c13.94,31,44.12,84.75,104,120a235.86,235.86,0,0,0,38,18" transform="translate(-342 -13)"/>
  <path class="e" d="M438.5,443.5c13.94,31,44.12,84.75,104,120a235.86,235.86,0,0,0,38,18" transform="translate(-342 -13)"/>
  <path class="e" d="M448.5,423.5c13.94,31,44.12,84.75,104,120a235.86,235.86,0,0,0,38,18" transform="translate(-342 -13)"/>
  <path class="e" d="M453.5,403.5c13.94,31,44.12,84.75,104,120a235.86,235.86,0,0,0,38,18" transform="translate(-342 -13)"/>
</svg>
